<?xml version="1.0" encoding="utf-8"?>
<!-- Generator: Adobe Illustrator 17.0.0, SVG Export Plug-In . SVG Version: 6.00 Build 0)  -->
<!DOCTYPE svg PUBLIC "-//W3C//DTD SVG 1.0//EN" "http://www.w3.org/TR/2001/REC-SVG-20010904/DTD/svg10.dtd">
<svg version="1.0" id="Capa_1" xmlns="http://www.w3.org/2000/svg" xmlns:xlink="http://www.w3.org/1999/xlink" x="0px" y="0px"
	 width="24px" height="24px" viewBox="0 0 24 24" style="enable-background:new 0 0 24 24;" xml:space="preserve">
<style type="text/css">
	.st0{fill:#FDC92B;}
	.st1{fill:#F4F4F4;}
	.st2{fill:#232323;}
	.st3{fill:#61B888;}
	.st4{fill:#F78F1E;}
	.st5{fill:#707070;}
	.st6{fill:#E84747;}
	.st7{fill:#5D97D0;}
	.st8{fill:#FFFFFF;stroke:#1D1D1B;stroke-width:0.9921;stroke-miterlimit:10;}
	.st9{fill:#1D1D1B;}
</style>
<path class="st2" d="M7.3,2.7C7.1,2.8,6.9,3,6.9,3.2c0,0.2,0.1,0.3,0.3,0.3c0,0,1.6,0.7,3.4,2.6C11.4,7,11.8,7.6,11.9,8
	s0,0.6-0.1,0.7c0,0,0,0,0,0c0,0,0,0-0.1,0.1c0,0.1-0.1,0.1-0.3,0.3c-0.1,0.1-0.1,0.1-0.1,0.2l-8.5,8.5c-0.4,0.4-0.4,1.2,0,1.6
	l1.5,1.5c0.4,0.4,1.2,0.4,1.6,0l8.9-8.9l0.1-0.1c0,0,0,0,0.1-0.1l0.4-0.4c0,0,0,0,0.1,0.1h0c0,0,0,0,0,0l0.5,0.5
	c0.1,0.1,0.1,0.2,0.1,0.3c0,0.2,0,0.3,0,0.3c-0.1,0.1-0.1,0.2-0.1,0.4c0,0.1,0,0.3,0.2,0.4l1.4,1.4c0.4,0.4,1.2,0.5,1.6,0v0l2.3-2.3
	c0.4-0.4,0.4-1.2,0-1.6l-1.4-1.4c-0.2-0.2-0.5-0.2-0.8-0.1c0,0-0.2,0.1-0.4,0.1c-0.2,0-0.3-0.1-0.3-0.1C17.9,9.2,17.8,9,17.7,9
	C17.9,8.8,18,8.6,18,8.3c0-0.3-0.1-0.6-0.3-0.8L16.1,6c0,0,0,0,0,0c0,0,0,0,0,0c-0.8-0.8-1.6-1.6-1.8-1.8c-0.4-0.4-1-0.7-1.8-0.8
	C11.8,3.1,11,3,10.2,2.9C8.7,2.7,7.4,2.7,7.3,2.7C7.3,2.7,7.3,2.7,7.3,2.7z M9,3.6c0.5,0,0.6,0,1.2,0.1c0.7,0.1,1.5,0.2,2.1,0.4
	c0.6,0.2,1.2,0.4,1.4,0.6c0.2,0.2,1,1,1.8,1.8c0,0,0,0,0,0c0,0,0,0,0,0l1.5,1.5c0.1,0.1,0.1,0.1,0.1,0.2c0,0.1,0,0.2-0.1,0.2
	c0,0-0.1,0.1-0.2,0.3c0,0.1,0,0.3,0,0.4c0,0,0,0,0,0c0,0,0,0.1,0,0.1c0,0,0,0,0,0.1c0,0,0,0,0,0c0,0,0,0,0.1,0.1
	c0,0,0.2,0.2,0.6,0.6c0.3,0.3,0.6,0.3,0.9,0.3c0.3,0,0.4,0,0.6-0.1c0.2,0.2,1.4,1.4,1.4,1.4c0.1,0.1,0.1,0.3,0,0.4l-2.3,2.3
	c-0.1,0.1-0.3,0.1-0.4,0c0,0-1.2-1.2-1.3-1.3c0.1-0.2,0.1-0.4,0.1-0.7c0-0.3-0.1-0.6-0.4-0.9L15.9,11L15.8,11c0,0,0,0,0,0
	c0,0,0,0,0,0c0-0.1-0.1-0.1-0.2-0.1c-0.1-0.1-0.3-0.2-0.5-0.1c-0.2,0-0.4,0.2-0.5,0.3l-0.4,0.4c0,0,0,0,0,0l-0.1,0.1
	c-0.1,0.1-0.2,0.2-0.2,0.2c0,0,0,0-0.2-0.1c-0.4-0.4-1.6-1.6-1.8-1.8c0,0,0-0.1,0-0.1c0,0,0,0,0.1-0.1c0,0,0,0,0,0c0,0,0,0,0,0
	c0,0,0,0,0,0c0,0,0,0,0,0c0.1-0.1,0.1-0.1,0.2-0.2c0,0,0.1-0.1,0.1-0.1c0,0,0,0,0,0c0,0,0,0,0,0c0.4-0.4,0.5-0.9,0.3-1.5
	c-0.2-0.6-0.6-1.3-1.4-2.1C10.4,4.7,9.6,4.1,9,3.6z M11.3,10.3C11.3,10.3,11.4,10.4,11.3,10.3c0.2,0.2,1.4,1.4,1.8,1.8
	c0.1,0.1,0.1,0.1,0.2,0.2l-8.1,8.1c-0.1,0.1-0.3,0.1-0.4,0l-1.5-1.5c-0.1-0.1-0.1-0.3,0-0.4L11.3,10.3z"/>
</svg>
