<?xml version="1.0" encoding="utf-8"?>
<!-- Generator: Adobe Illustrator 17.0.0, SVG Export Plug-In . SVG Version: 6.00 Build 0)  -->
<!DOCTYPE svg PUBLIC "-//W3C//DTD SVG 1.0//EN" "http://www.w3.org/TR/2001/REC-SVG-20010904/DTD/svg10.dtd">
<svg version="1.0" id="Capa_1" xmlns="http://www.w3.org/2000/svg" xmlns:xlink="http://www.w3.org/1999/xlink" x="0px" y="0px"
	 width="24px" height="24px" viewBox="0 0 24 24" style="enable-background:new 0 0 24 24;" xml:space="preserve">
<style type="text/css">
	.st0{fill:#FDC92B;}
	.st1{fill:#F4F4F4;}
	.st2{fill:#232323;}
	.st3{fill:#61B888;}
	.st4{fill:#F78F1E;}
	.st5{fill:#707070;}
	.st6{fill:#E84747;}
	.st7{fill:#5D97D0;}
	.st8{fill:#FFFFFF;stroke:#1D1D1B;stroke-width:0.9921;stroke-miterlimit:10;}
	.st9{fill:#1D1D1B;}
</style>
<g>
	<g>
		<path class="st1" d="M12,20.6l-0.4-0.5c-0.2-0.3-5.4-6.6-5.4-10.9C6.2,6,8.8,3.4,12,3.4c3.2,0,5.8,2.6,5.8,5.8
			c0,4.3-5.2,10.7-5.4,10.9L12,20.6z M12,4.4c-2.7,0-4.8,2.2-4.8,4.8c0,3.3,3.6,8.3,4.8,9.8c1.2-1.5,4.8-6.5,4.8-9.8
			C16.8,6.5,14.7,4.4,12,4.4z M12,12c-1.6,0-2.8-1.3-2.8-2.8c0-1.6,1.3-2.8,2.8-2.8c1.6,0,2.8,1.3,2.8,2.8C14.8,10.8,13.6,12,12,12z
			 M12,7.4c-1,0-1.8,0.8-1.8,1.8c0,1,0.8,1.8,1.8,1.8c1,0,1.8-0.8,1.8-1.8C13.8,8.2,13,7.4,12,7.4z"/>
	</g>
</g>
</svg>
