<?xml version="1.0" encoding="utf-8"?>
<!-- Generator: Adobe Illustrator 17.0.0, SVG Export Plug-In . SVG Version: 6.00 Build 0)  -->
<!DOCTYPE svg PUBLIC "-//W3C//DTD SVG 1.0//EN" "http://www.w3.org/TR/2001/REC-SVG-20010904/DTD/svg10.dtd">
<svg version="1.0" id="Capa_1" xmlns="http://www.w3.org/2000/svg" xmlns:xlink="http://www.w3.org/1999/xlink" x="0px" y="0px"
	 width="24px" height="24px" viewBox="0 0 24 24" style="enable-background:new 0 0 24 24;" xml:space="preserve">
<style type="text/css">
	.st0{fill:#FDC92B;}
	.st1{fill:#F4F4F4;}
	.st2{fill:#232323;}
	.st3{fill:#61B888;}
	.st4{fill:#F78F1E;}
	.st5{fill:#707070;}
	.st6{fill:#E84747;}
	.st7{fill:#5D97D0;}
	.st8{fill:#FFFFFF;stroke:#1D1D1B;stroke-width:0.9921;stroke-miterlimit:10;}
	.st9{fill:#1D1D1B;}
</style>
<g id="surface1_13_">
	<path class="st1" d="M7.8,3.7c-0.1,0-0.1,0-0.2,0.1L3.2,7.2c0,0,0,0,0,0c0,0,0,0,0,0c0,0-0.1,0-0.1,0.1c0,0,0,0,0,0c0,0,0,0,0,0
		c0,0,0,0,0,0c0,0,0,0,0,0.1c0,0,0,0,0,0c0,0,0,0,0,0c0,0,0,0,0,0.1l-1.7,3.4c-0.1,0.2-0.1,0.4,0.1,0.5c0.1,0.1,0.3,0.2,0.5,0.1
		L2.9,11v8.9c0,0.2,0.2,0.4,0.4,0.4h13.1c0,0,0,0,0,0c0,0,0.1,0,0.1,0c0,0,0,0,0,0c0.1,0,0.1,0,0.1-0.1c0,0,0,0,0,0c0,0,0,0,0,0l0,0
		c0,0,0,0,0,0l3.4-4.3c0.1-0.1,0.1-0.2,0.1-0.3v-4.2l2.5-2.5c0.1-0.1,0.2-0.4,0.1-0.5l-2.5-4.2c0-0.1,0-0.1-0.1-0.2c0,0,0,0,0,0
		c0,0,0,0,0,0c0,0,0,0,0,0c0,0,0,0,0,0c0,0,0,0,0,0c0,0-0.1,0-0.1,0c0,0,0,0,0,0c0,0,0,0,0,0c0,0,0,0,0,0c0,0,0,0,0,0c0,0,0,0,0,0
		c0,0,0,0,0,0c0,0,0,0,0,0c0,0,0,0,0,0H7.8C7.9,3.7,7.9,3.7,7.8,3.7C7.8,3.7,7.8,3.7,7.8,3.7z M8,4.6h10.8l-2.6,2.6H4.6L8,4.6z
		 M19.8,4.9l2.1,3.6l-2.9,2.9l-2.1-3.6L19.8,4.9z M3.8,8.1H16v11.3H3.8v-9.1c0,0,0,0,0-0.1V8.1z M16.8,9.2l1.8,3
		c0.1,0.1,0.2,0.2,0.3,0.2c0.1,0,0.3,0,0.4-0.1l0.1-0.1v3.1l-2.6,3.3V9.2z M2.9,9.5V10l-0.3,0.2L2.9,9.5z M7.6,9.8
		c-0.2,0-0.4,0.3-0.4,0.5c0,0.2,0.3,0.4,0.5,0.4H12c0.2,0,0.3-0.1,0.4-0.2c0.1-0.1,0.1-0.3,0-0.4c-0.1-0.1-0.2-0.2-0.4-0.2H7.7
		C7.7,9.8,7.7,9.8,7.6,9.8C7.6,9.8,7.6,9.8,7.6,9.8C7.6,9.8,7.6,9.8,7.6,9.8z"/>
</g>
</svg>
