<?xml version="1.0" encoding="utf-8"?>
<!-- Generator: Adobe Illustrator 17.0.0, SVG Export Plug-In . SVG Version: 6.00 Build 0)  -->
<!DOCTYPE svg PUBLIC "-//W3C//DTD SVG 1.0//EN" "http://www.w3.org/TR/2001/REC-SVG-20010904/DTD/svg10.dtd">
<svg version="1.0" id="Capa_1" xmlns="http://www.w3.org/2000/svg" xmlns:xlink="http://www.w3.org/1999/xlink" x="0px" y="0px"
	 width="24px" height="24px" viewBox="0 0 24 24" style="enable-background:new 0 0 24 24;" xml:space="preserve">
<style type="text/css">
	.st0{fill:#FDC92B;}
	.st1{fill:#F4F4F4;}
	.st2{fill:#232323;}
	.st3{fill:#61B888;}
	.st4{fill:#F78F1E;}
	.st5{fill:#707070;}
	.st6{fill:#E84747;}
	.st7{fill:#5D97D0;}
	.st8{fill:#FFFFFF;stroke:#1D1D1B;stroke-width:0.9921;stroke-miterlimit:10;}
	.st9{fill:#1D1D1B;}
</style>
<g id="surface1_8_">
	<path class="st2" d="M12.4,2.5c-1.5,0-2.5,0.5-3,1.3C9,4.5,9,5.5,9.2,6.5C9,6.7,8.9,6.9,9,7.2C9,7.6,9.1,7.8,9.3,8
		c0.1,0.1,0.1,0.1,0.2,0.1c0.1,0.4,0.2,0.7,0.4,1c0.1,0.2,0.2,0.3,0.3,0.4c0,0,0.1,0.1,0.1,0.1v0.8c-0.1,0.2-0.2,0.3-0.5,0.4
		c-0.3,0.2-0.7,0.3-1.1,0.5c-0.4,0.2-0.9,0.4-1.2,0.8c-0.4,0.4-0.6,0.9-0.7,1.6c0,0.1,0,0.2,0.1,0.3c0.1,0.1,0.2,0.1,0.3,0.1h9.5
		c0.1,0,0.2,0,0.3-0.1c0.1-0.1,0.1-0.2,0.1-0.3c0-0.7-0.3-1.2-0.7-1.6c-0.4-0.4-0.8-0.6-1.2-0.8c-0.4-0.2-0.8-0.3-1.1-0.5
		c-0.3-0.1-0.4-0.3-0.5-0.4V9.6c0,0,0.1,0,0.1-0.1c0.1-0.1,0.2-0.3,0.3-0.4c0.2-0.3,0.3-0.6,0.4-0.9c0.1,0,0.2,0,0.2-0.1
		C14.9,7.9,15,7.6,15,7.3c0-0.2,0-0.4-0.1-0.6c0,0-0.1-0.1-0.1-0.1c0.2-0.7,0.3-1.5,0-2.2C14.6,3.6,13.9,3.1,13,3l-0.2-0.3
		C12.7,2.6,12.6,2.5,12.4,2.5z M12.2,3.4l0.1,0.2c0.1,0.1,0.2,0.2,0.4,0.2c0.8,0,1.1,0.3,1.3,0.8c0.2,0.5,0.2,1.3,0,1.9
		c-0.1,0.2,0,0.4,0.2,0.5c0,0,0,0.1,0,0.1c0,0,0,0,0,0c0,0.2-0.1,0.3-0.1,0.4c-0.2,0-0.3,0.2-0.3,0.4c0,0.1-0.1,0.4-0.3,0.7
		c-0.1,0.1-0.2,0.2-0.2,0.3C13.1,9,13,9.1,13.1,9c-0.1,0.1-0.2,0.2-0.2,0.4v1.1c0,0.1,0,0.1,0,0.1c0.2,0.5,0.5,0.7,0.9,0.9
		s0.8,0.3,1.2,0.5c0.4,0.2,0.7,0.4,0.9,0.6c0.1,0.2,0.2,0.4,0.3,0.6H7.8c0.1-0.2,0.2-0.4,0.3-0.6c0.2-0.2,0.6-0.4,0.9-0.6
		c0.4-0.2,0.8-0.3,1.2-0.5c0.4-0.2,0.7-0.5,0.9-0.9c0,0,0-0.1,0-0.1V9.4c0-0.2-0.1-0.3-0.2-0.4c0.1,0,0,0-0.1-0.1
		c-0.1-0.1-0.2-0.2-0.2-0.3c-0.2-0.2-0.3-0.5-0.3-0.7c0-0.2-0.1-0.4-0.3-0.4c0,0-0.1-0.1-0.1-0.4c0-0.1,0-0.1,0-0.1
		C10,6.9,10.1,6.7,10,6.5c-0.2-1-0.2-1.8,0.1-2.3C10.5,3.8,11.1,3.5,12.2,3.4z M7,15l-1.8,1.9c-0.2-0.1-0.3-0.1-0.5-0.1
		c-0.7,0-1.3,0.6-1.3,1.3s0.6,1.3,1.3,1.3c0.6,0,1-0.4,1.2-1C5.9,18.3,6,18.2,6,18c0-0.1,0-0.2-0.1-0.3c0-0.1,0-0.1-0.1-0.2
		c0,0,0.1-0.1,0.1-0.1L8.1,15H7z M11.6,15v4c-0.5,0.2-0.9,0.7-0.9,1.2c0,0.7,0.6,1.3,1.3,1.3s1.3-0.6,1.3-1.3c0-0.6-0.4-1-0.9-1.2
		v-4H11.6z M15.9,15l2.2,2.4c0,0,0.1,0.1,0.1,0.1c0,0.1,0,0.1-0.1,0.2C18.1,17.8,18,17.9,18,18c0,0.1,0,0.2,0.1,0.3
		c0.2,0.5,0.6,1,1.2,1c0.7,0,1.3-0.6,1.3-1.3s-0.6-1.3-1.3-1.3c-0.2,0-0.4,0.1-0.5,0.1L17,15H15.9z M4.7,17.6c0.2,0,0.4,0.2,0.4,0.4
		c0,0.2-0.2,0.4-0.4,0.4c-0.2,0-0.4-0.2-0.4-0.4C4.2,17.8,4.4,17.6,4.7,17.6z M19.3,17.6c0.2,0,0.4,0.2,0.4,0.4
		c0,0.2-0.2,0.4-0.4,0.4c-0.2,0-0.4-0.2-0.4-0.4C18.9,17.8,19.1,17.6,19.3,17.6z M12,19.8c0.2,0,0.4,0.2,0.4,0.4
		c0,0.2-0.2,0.4-0.4,0.4c-0.2,0-0.4-0.2-0.4-0.4C11.6,20,11.8,19.8,12,19.8z"/>
</g>
</svg>
