<?xml version="1.0" encoding="utf-8"?>
<!-- Generator: Adobe Illustrator 17.0.0, SVG Export Plug-In . SVG Version: 6.00 Build 0)  -->
<!DOCTYPE svg PUBLIC "-//W3C//DTD SVG 1.0//EN" "http://www.w3.org/TR/2001/REC-SVG-20010904/DTD/svg10.dtd">
<svg version="1.0" id="Capa_1" xmlns="http://www.w3.org/2000/svg" xmlns:xlink="http://www.w3.org/1999/xlink" x="0px" y="0px"
	 width="24px" height="24px" viewBox="0 0 24 24" style="enable-background:new 0 0 24 24;" xml:space="preserve">
<style type="text/css">
	.st0{fill:#FDC92B;}
	.st1{fill:#F4F4F4;}
	.st2{fill:#232323;}
	.st3{fill:#61B888;}
	.st4{fill:#F78F1E;}
	.st5{fill:#707070;}
	.st6{fill:#E84747;}
	.st7{fill:#5D97D0;}
	.st8{fill:#FFFFFF;stroke:#1D1D1B;stroke-width:0.9921;stroke-miterlimit:10;}
	.st9{fill:#1D1D1B;}
</style>
<g>
	<path class="st7" d="M12,21.8c-5.4,0-9.8-4.4-9.8-9.8S6.6,2.2,12,2.2c5.4,0,9.8,4.4,9.8,9.8S17.4,21.8,12,21.8z M12,3.1
		c-4.9,0-8.9,4-8.9,8.9c0,4.9,4,8.9,8.9,8.9c4.9,0,8.9-4,8.9-8.9C20.9,7.1,16.9,3.1,12,3.1z"/>
	<g id="info">
		<path class="st7" d="M12.6,8.9c0,0.3-0.2,0.6-0.6,0.6c-0.3,0-0.6-0.3-0.6-0.6c0-0.3,0.3-0.6,0.6-0.6C12.4,8.3,12.6,8.5,12.6,8.9z
			 M11.5,15.7v-5.4h1v5.4H11.5z"/>
	</g>
</g>
</svg>
