<?xml version="1.0" encoding="utf-8"?>
<!-- Generator: Adobe Illustrator 17.0.0, SVG Export Plug-In . SVG Version: 6.00 Build 0)  -->
<!DOCTYPE svg PUBLIC "-//W3C//DTD SVG 1.0//EN" "http://www.w3.org/TR/2001/REC-SVG-20010904/DTD/svg10.dtd">
<svg version="1.0" id="Capa_1" xmlns="http://www.w3.org/2000/svg" xmlns:xlink="http://www.w3.org/1999/xlink" x="0px" y="0px"
	 width="24px" height="24px" viewBox="0 0 24 24" style="enable-background:new 0 0 24 24;" xml:space="preserve">
<style type="text/css">
	.st0{fill:#FDC92B;}
	.st1{fill:#F4F4F4;}
	.st2{fill:#232323;}
	.st3{fill:#61B888;}
	.st4{fill:#F78F1E;}
	.st5{fill:#707070;}
	.st6{fill:#E84747;}
	.st7{fill:#5D97D0;}
	.st8{fill:#FFFFFF;stroke:#1D1D1B;stroke-width:0.9921;stroke-miterlimit:10;}
	.st9{fill:#1D1D1B;}
</style>
<g>
	<path class="st2" d="M16.3,18.1h-4.8c-0.2-0.6-0.4-1.4-0.7-2.3h6.2l2.6-8.2l-0.9-0.3l-2.3,7.5h-5.8C9,10,6.9,3,6.9,2.9L6.8,2.5H2.5
		v1H6c0.6,2,3.5,11.6,4.5,14.9c-0.5,0.3-0.8,0.8-0.8,1.4c0,0.9,0.8,1.7,1.7,1.7c0.9,0,1.7-0.8,1.7-1.7c0-0.3-0.1-0.5-0.2-0.7h1.8
		c-0.1,0.2-0.2,0.5-0.2,0.7c0,0.9,0.8,1.7,1.7,1.7c0.9,0,1.7-0.8,1.7-1.7C18,18.9,17.2,18.1,16.3,18.1z M12.1,19.8
		c0,0.4-0.3,0.7-0.7,0.7c-0.4,0-0.7-0.3-0.7-0.7c0-0.4,0.3-0.7,0.7-0.7C11.8,19.1,12.1,19.4,12.1,19.8z M16.3,20.5
		c-0.4,0-0.7-0.3-0.7-0.7c0-0.4,0.3-0.7,0.7-0.7c0.4,0,0.7,0.3,0.7,0.7C17,20.2,16.7,20.5,16.3,20.5z"/>
	<polygon class="st2" points="12.7,10.8 13.4,11.5 14.1,10.8 14.1,10.8 16,8.8 15.3,8.1 13.9,9.6 13.9,2.5 12.9,2.5 12.9,9.6 
		11.4,8.1 10.7,8.8 12.7,10.8 	"/>
</g>
</svg>
