<?xml version="1.0" encoding="utf-8"?>
<!-- Generator: Adobe Illustrator 17.0.0, SVG Export Plug-In . SVG Version: 6.00 Build 0)  -->
<!DOCTYPE svg PUBLIC "-//W3C//DTD SVG 1.0//EN" "http://www.w3.org/TR/2001/REC-SVG-20010904/DTD/svg10.dtd">
<svg version="1.0" id="Capa_1" xmlns="http://www.w3.org/2000/svg" xmlns:xlink="http://www.w3.org/1999/xlink" x="0px" y="0px"
	 width="24px" height="24px" viewBox="0 0 24 24" style="enable-background:new 0 0 24 24;" xml:space="preserve">
<style type="text/css">
	.st0{fill:#FDC92B;}
	.st1{fill:#F4F4F4;}
	.st2{fill:#232323;}
	.st3{fill:#61B888;}
	.st4{fill:#F78F1E;}
	.st5{fill:#707070;}
	.st6{fill:#E84747;}
	.st7{fill:#5D97D0;}
	.st8{fill:#FFFFFF;stroke:#1D1D1B;stroke-width:0.9921;stroke-miterlimit:10;}
	.st9{fill:#1D1D1B;}
</style>
<g id="surface1_14_">
	<path class="st2" d="M8,3.7c-0.1,0-0.1,0-0.2,0.1L3.4,7.2c0,0,0,0,0,0c0,0,0,0,0,0c0,0-0.1,0-0.1,0.1c0,0,0,0,0,0c0,0,0,0,0,0
		c0,0,0,0,0,0c0,0,0,0,0,0.1c0,0,0,0,0,0c0,0,0,0,0,0c0,0,0,0,0,0.1l-1.7,3.4c-0.1,0.2-0.1,0.4,0.1,0.5c0.1,0.1,0.3,0.2,0.5,0.1
		L3.1,11v8.9c0,0.2,0.2,0.4,0.4,0.4h13.1c0,0,0,0,0,0c0,0,0.1,0,0.1,0c0,0,0,0,0,0c0.1,0,0.1,0,0.1-0.1c0,0,0,0,0,0c0,0,0,0,0,0l0,0
		c0,0,0,0,0,0l3.4-4.3c0.1-0.1,0.1-0.2,0.1-0.3v-4.2L23,8.8c0.1-0.1,0.2-0.4,0.1-0.5l-2.5-4.2c0-0.1,0-0.1-0.1-0.2c0,0,0,0,0,0
		c0,0,0,0,0,0c0,0,0,0,0,0c0,0,0,0,0,0c0,0,0,0,0,0c0,0-0.1,0-0.1,0c0,0,0,0,0,0c0,0,0,0,0,0c0,0,0,0,0,0c0,0,0,0,0,0c0,0,0,0,0,0
		c0,0,0,0,0,0c0,0,0,0,0,0c0,0,0,0,0,0H8C8.1,3.7,8.1,3.7,8,3.7C8,3.7,8,3.7,8,3.7z M8.2,4.6H19l-2.6,2.6H4.8L8.2,4.6z M20,4.9
		l2.1,3.6l-2.9,2.9l-2.2-3.6L20,4.9z M4,8.1h12.2v11.3H4v-9.1c0,0,0,0,0-0.1V8.1z M17,9.2l1.8,3c0.1,0.1,0.2,0.2,0.3,0.2
		c0.1,0,0.3,0,0.4-0.1l0.1-0.1v3.1L17,18.6V9.2z M3.1,9.5V10l-0.3,0.2L3.1,9.5z M7.8,9.8c-0.2,0-0.4,0.3-0.4,0.5
		c0,0.2,0.3,0.4,0.5,0.4h4.4c0.2,0,0.3-0.1,0.4-0.2c0.1-0.1,0.1-0.3,0-0.4c-0.1-0.1-0.2-0.2-0.4-0.2H7.9C7.9,9.8,7.9,9.8,7.8,9.8
		C7.8,9.8,7.8,9.8,7.8,9.8C7.8,9.8,7.8,9.8,7.8,9.8z"/>
</g>
</svg>
