<?xml version="1.0" encoding="utf-8"?>
<!-- Generator: Adobe Illustrator 17.0.0, SVG Export Plug-In . SVG Version: 6.00 Build 0)  -->
<!DOCTYPE svg PUBLIC "-//W3C//DTD SVG 1.0//EN" "http://www.w3.org/TR/2001/REC-SVG-20010904/DTD/svg10.dtd">
<svg version="1.0" id="Capa_1" xmlns="http://www.w3.org/2000/svg" xmlns:xlink="http://www.w3.org/1999/xlink" x="0px" y="0px"
	 width="52px" height="52px" viewBox="0 0 52 52" style="enable-background:new 0 0 52 52;" xml:space="preserve">
<style type="text/css">
	.st0{fill:#F28E23;}
	.st1{fill:#FFFFFF;}
	.st2{fill:#F5F5F5;}
	.st3{fill:#2C2624;}
</style>
<g>
	<path class="st0" d="M24.4,44.6C23.9,44,12.2,29.8,12.2,19.8c0-7.6,6.2-13.8,13.8-13.8s13.8,6.2,13.8,13.8
		c0,9.9-11.7,24.1-12.2,24.7L26,46.5L24.4,44.6z M26,14.6c-2.9,0-5.2,2.3-5.2,5.2c0,2.9,2.3,5.2,5.2,5.2s5.2-2.3,5.2-5.2
		C31.2,17,28.9,14.6,26,14.6z"/>
	<path class="st1" d="M26,7.1c7,0,12.8,5.7,12.8,12.8c0,9.6-11.5,23.5-11.9,24.1l-0.8,1l-0.8-1c-0.5-0.6-11.9-14.5-11.9-24.1
		C13.2,12.8,19,7.1,26,7.1 M26,26.1c3.4,0,6.2-2.8,6.2-6.2c0-3.4-2.8-6.2-6.2-6.2s-6.2,2.8-6.2,6.2C19.8,23.3,22.6,26.1,26,26.1
		 M26,5.1c-8.2,0-14.8,6.6-14.8,14.8c0,10.1,11.1,23.8,12.4,25.4l0.8,1l1.5,1.9l1.5-1.9l0.8-1c1.3-1.5,12.4-15.3,12.4-25.4
		C40.8,11.7,34.2,5.1,26,5.1L26,5.1z M26,24.1c-2.3,0-4.2-1.9-4.2-4.2c0-2.3,1.9-4.2,4.2-4.2s4.2,1.9,4.2,4.2
		C30.2,22.2,28.3,24.1,26,24.1L26,24.1z"/>
</g>
</svg>
