<?xml version="1.0" encoding="utf-8"?>
<!-- Generator: Adobe Illustrator 17.0.0, SVG Export Plug-In . SVG Version: 6.00 Build 0)  -->
<!DOCTYPE svg PUBLIC "-//W3C//DTD SVG 1.0//EN" "http://www.w3.org/TR/2001/REC-SVG-20010904/DTD/svg10.dtd">
<svg version="1.0" id="Capa_1" xmlns="http://www.w3.org/2000/svg" xmlns:xlink="http://www.w3.org/1999/xlink" x="0px" y="0px"
	 width="24px" height="24px" viewBox="0 0 24 24" style="enable-background:new 0 0 24 24;" xml:space="preserve">
<style type="text/css">
	.st0{fill:#FDC92B;}
	.st1{fill:#F4F4F4;}
	.st2{fill:#232323;}
	.st3{fill:#61B888;}
	.st4{fill:#F78F1E;}
	.st5{fill:#707070;}
	.st6{fill:#E84747;}
	.st7{fill:#5D97D0;}
	.st8{fill:#FFFFFF;stroke:#1D1D1B;stroke-width:0.9921;stroke-miterlimit:10;}
	.st9{fill:#1D1D1B;}
</style>
<g id="surface1_5_">
	<path class="st1" d="M12,2.3C8.2,2.3,5,5.2,4.6,9C4.2,9.1,3.9,9.4,3.8,9.8c-0.6,0.1-1.1,0.5-1.5,1.1c-0.4,0.6-0.7,1.5-0.7,2.4
		c0,0.9,0.2,1.8,0.7,2.4c0.4,0.5,0.9,0.9,1.5,1.1C4,17.2,4.4,17.6,5,17.6c0.7,0,1.2-0.6,1.2-1.2v-6.2c0-0.5-0.3-0.9-0.8-1.1
		C5.8,5.7,8.6,3.1,12,3.1s6.2,2.6,6.6,5.9c-0.5,0.2-0.8,0.6-0.8,1.1v6.2c0,0.5,0.3,1,0.8,1.1c-0.1,0.8-0.3,1.4-0.7,1.8
		c-0.5,0.5-1.2,0.8-2.1,0.8h-1.3c-0.2-0.5-0.6-0.8-1.2-0.8h-2.1c-0.7,0-1.2,0.6-1.2,1.2c0,0.7,0.6,1.2,1.2,1.2h2.1
		c0.5,0,1-0.3,1.2-0.8h1.3c1.1,0,2.1-0.3,2.7-1c0.6-0.6,0.9-1.4,1-2.4c0.4-0.1,0.7-0.4,0.8-0.8c0.6-0.1,1.1-0.5,1.5-1.1
		c0.4-0.6,0.7-1.5,0.7-2.4c0-0.9-0.2-1.8-0.7-2.4c-0.4-0.5-0.9-0.9-1.5-1.1c-0.1-0.4-0.4-0.7-0.8-0.8C19,5.2,15.8,2.3,12,2.3z
		 M5,9.7c0.2,0,0.4,0.2,0.4,0.4v6.2c0,0.2-0.2,0.4-0.4,0.4s-0.4-0.2-0.4-0.4v-6.2C4.6,9.9,4.7,9.7,5,9.7z M19,9.7
		c0.2,0,0.4,0.2,0.4,0.4v6.2c0,0.2-0.2,0.4-0.4,0.4s-0.4-0.2-0.4-0.4v-6.2C18.6,9.9,18.8,9.7,19,9.7z M3.7,10.6v5.2
		c-0.3-0.1-0.5-0.3-0.7-0.6c-0.3-0.5-0.5-1.2-0.5-2s0.2-1.5,0.5-2C3.2,11,3.5,10.8,3.7,10.6z M20.3,10.6c0.3,0.1,0.5,0.3,0.7,0.6
		c0.3,0.5,0.5,1.2,0.5,2s-0.2,1.5-0.5,2c-0.2,0.3-0.5,0.5-0.7,0.6V10.6z M11.2,20.1h2.1c0.2,0,0.4,0.2,0.4,0.4
		c0,0.2-0.2,0.4-0.4,0.4h-2.1c-0.2,0-0.4-0.2-0.4-0.4C10.8,20.2,10.9,20.1,11.2,20.1z"/>
</g>
</svg>
