<?xml version="1.0" encoding="utf-8"?>
<!-- Generator: Adobe Illustrator 17.0.0, SVG Export Plug-In . SVG Version: 6.00 Build 0)  -->
<!DOCTYPE svg PUBLIC "-//W3C//DTD SVG 1.0//EN" "http://www.w3.org/TR/2001/REC-SVG-20010904/DTD/svg10.dtd">
<svg version="1.0" id="Capa_1" xmlns="http://www.w3.org/2000/svg" xmlns:xlink="http://www.w3.org/1999/xlink" x="0px" y="0px"
	 width="24px" height="24px" viewBox="0 0 24 24" style="enable-background:new 0 0 24 24;" xml:space="preserve">
<style type="text/css">
	.st0{fill:#FDC92B;}
	.st1{fill:#F4F4F4;}
	.st2{fill:#232323;}
	.st3{fill:#61B888;}
	.st4{fill:#F78F1E;}
	.st5{fill:#707070;}
	.st6{fill:#E84747;}
	.st7{fill:#5D97D0;}
	.st8{fill:#FFFFFF;stroke:#1D1D1B;stroke-width:0.9921;stroke-miterlimit:10;}
	.st9{fill:#1D1D1B;}
</style>
<g id="surface1_9_">
	<path class="st1" d="M11.8,2C9.5,2,7.7,2.7,6.5,3.9c-1.2,1.2-1.8,3-1.8,5.1c0,0.9,0.4,2.6,0.7,3.6C5.3,12.7,5.1,12.8,5,13
		c-0.2,0.3-0.4,0.8-0.3,1.4c0.2,1.6,1.2,2.2,1.5,2.4c0.1,0.8,0.5,1.7,1.2,2.6c0.7,1,1.6,2,2.8,2.6c0,0,0,0,0.1,0
		c0.4,0.5,1,0.8,1.7,0.8s1.3-0.4,1.7-0.8c0,0,0,0,0.1,0c1.1-0.6,2.1-1.5,2.7-2.6c0.6-0.9,1-1.9,1.1-2.6c0.3-0.2,1.4-0.7,1.6-2.3
		c0.1-0.6-0.1-1-0.3-1.4c-0.1-0.2-0.3-0.3-0.4-0.4c0.3-1,0.7-2.6,0.7-4.3c0-0.8-0.2-1.9-0.7-2.8c-0.5-0.9-1.4-1.6-2.7-1.7
		C15.2,3,13.9,2,11.8,2z M11.8,2.9c2,0,3,0.9,3.3,1.6c0.1,0.1,0.2,0.2,0.4,0.2c1.1,0,1.7,0.5,2.1,1.3c0.4,0.7,0.6,1.7,0.6,2.3
		c0,1.7-0.5,3.3-0.8,4.3c-0.1,0.2,0,0.4,0.2,0.5c0.1,0,0.3,0.2,0.4,0.4c0.1,0.2,0.2,0.4,0.2,0.8C18,15.7,17,16,17,16
		c-0.2,0.1-0.3,0.2-0.3,0.4c-0.1,0.5-0.4,1.5-1.1,2.5c-0.6,0.9-1.5,1.8-2.4,2.3c-0.1,0-0.1,0.1-0.2,0.2c-0.2,0.4-0.7,0.6-1.1,0.6
		s-0.9-0.2-1.1-0.6c0-0.1-0.1-0.1-0.2-0.2c-1-0.4-1.8-1.3-2.5-2.3c-0.6-0.9-1-2-1.1-2.5c0-0.2-0.1-0.3-0.3-0.4c0,0-1-0.3-1.2-1.8
		c0-0.3,0-0.6,0.2-0.8c0.1-0.2,0.3-0.3,0.4-0.4c0.2-0.1,0.3-0.3,0.2-0.5C6,11.8,5.6,9.6,5.6,9.1c0-1.9,0.5-3.5,1.6-4.5
		C8.1,3.5,9.7,2.9,11.8,2.9z M15.2,6.4C15.2,6.4,15.2,6.4,15.2,6.4C15.1,6.4,15.1,6.4,15.2,6.4c-0.1,0-0.1,0.1-0.2,0.1c0,0,0,0,0,0
		c0,0,0,0,0,0c0,0,0,0,0,0c0,0,0,0,0,0c0,0,0,0,0,0c0,0,0,0.1-0.1,0.1v0c0,0,0,0,0,0c0,0.1-0.2,0.4-0.7,0.8
		c-0.5,0.4-1.4,0.9-2.7,0.9c-0.8,0-1.9,0-2.8,0.3C8.2,8.8,7.7,9.1,7.4,9.5C7.1,9.9,6.9,10.4,6.9,11c0,0.2,0.1,0.3,0.2,0.4
		c0.1,0.1,0.3,0.1,0.5,0c0.1-0.1,0.2-0.2,0.2-0.4c0-0.5,0.1-0.8,0.3-1c0.2-0.2,0.5-0.4,0.8-0.5c0.7-0.3,1.7-0.3,2.5-0.3
		c1.5,0,2.6-0.5,3.3-1.1C15,8,15.1,7.8,15.3,7.6c0.4,0.7,1.1,2,1.1,3.4c0,0.2,0.1,0.3,0.2,0.4c0.1,0.1,0.3,0.1,0.5,0
		c0.1-0.1,0.2-0.2,0.2-0.4c0-2.2-1.4-4.1-1.6-4.4c0,0,0,0,0,0c0,0,0-0.1,0-0.1c0,0,0,0,0,0l0,0c0,0,0,0,0,0c0,0,0,0,0,0
		c0,0-0.1-0.1-0.1-0.1c0,0,0,0,0,0c0,0,0,0,0,0c0,0,0,0,0,0c0,0,0,0,0,0c0,0,0,0,0,0c0,0,0,0,0,0c0,0,0,0,0,0c0,0,0,0,0,0
		C15.3,6.4,15.3,6.4,15.2,6.4C15.3,6.4,15.3,6.4,15.2,6.4C15.3,6.4,15.2,6.4,15.2,6.4C15.2,6.4,15.2,6.4,15.2,6.4z M9.4,13.3
		c-0.4,0-0.7,0.3-0.7,0.7c0,0.4,0.3,0.7,0.7,0.7c0.4,0,0.7-0.3,0.7-0.7C10.1,13.6,9.8,13.3,9.4,13.3z M14.4,13.3
		c-0.4,0-0.7,0.3-0.7,0.7c0,0.4,0.3,0.7,0.7,0.7c0.4,0,0.7-0.3,0.7-0.7C15.1,13.6,14.8,13.3,14.4,13.3z"/>
</g>
</svg>
