<?xml version="1.0" encoding="utf-8"?>
<!-- Generator: Adobe Illustrator 17.0.0, SVG Export Plug-In . SVG Version: 6.00 Build 0)  -->
<!DOCTYPE svg PUBLIC "-//W3C//DTD SVG 1.0//EN" "http://www.w3.org/TR/2001/REC-SVG-20010904/DTD/svg10.dtd">
<svg version="1.0" id="Capa_1" xmlns="http://www.w3.org/2000/svg" xmlns:xlink="http://www.w3.org/1999/xlink" x="0px" y="0px"
	 width="24px" height="24px" viewBox="0 0 24 24" style="enable-background:new 0 0 24 24;" xml:space="preserve">
<style type="text/css">
	.st0{fill:#FDC92B;}
	.st1{fill:#F4F4F4;}
	.st2{fill:#232323;}
	.st3{fill:#61B888;}
	.st4{fill:#F78F1E;}
	.st5{fill:#707070;}
	.st6{fill:#E84747;}
	.st7{fill:#5D97D0;}
	.st8{fill:#FFFFFF;stroke:#1D1D1B;stroke-width:0.9921;stroke-miterlimit:10;}
	.st9{fill:#1D1D1B;}
</style>
<path class="st2" d="M15.3,2.8l-0.3,0.3l-1,1c-0.6,0.6-0.6,1.6,0,2.3c0,0,0.2,0.2,0.3,0.3c0,0.1-0.1,0.3-0.4,0.6l-4.5,4.5
	c-0.1,0-0.1,0.1-0.2,0.1L8.2,13c-0.1,0-0.1,0.1-0.2,0.1L7,14.3c-0.1,0-0.1,0.1-0.2,0.1l-1.1,1.1c-0.1,0-0.1,0.1-0.2,0.1l-1.2,1.2
	l-0.1,0.1l0,0.1l-1.1,3.4l-0.3,0.8l0.8-0.3L7,19.7l0.1,0l0.1-0.1l0,0h0c0.1,0,0.2-0.1,0.2-0.2l1-1c0.1,0,0.2-0.1,0.2-0.2l1-1
	c0.1,0,0.2-0.1,0.2-0.2l1-1c0,0,0,0,0,0l0.1,0c0.1,0,0.1-0.1,0.2-0.2l5.6-5.6c0.3-0.3,0.5-0.4,0.6-0.4c0.1,0.1,0.3,0.3,0.3,0.3l0,0
	c0.3,0.3,0.8,0.5,1.2,0.4c0.4,0,0.8-0.2,1-0.5c0.4-0.4,1-1,1-1l0.3-0.3l-0.3-0.3l-2.2-2.2l-0.3-0.3l-0.3,0.3l-0.6,0.6l-0.4-0.4
	l0.6-0.6L18,5.6l-0.3-0.3l-2.1-2.1L15.3,2.8z M15.3,4l1.6,1.6l-0.6,0.6L16,6.4l0.3,0.3l1,0.9l0.3,0.3l0.3-0.3l0.6-0.6L20,8.7
	c-0.2,0.2-0.5,0.5-0.7,0.7c-0.1,0.1-0.3,0.2-0.5,0.2c-0.2,0-0.4,0-0.5-0.2c-0.5-0.5-3-3-3.6-3.6l0,0c-0.3-0.3-0.3-0.8,0-1.1L15.3,4z
	 M14.9,7.2l1.8,1.8c-0.2,0.1-0.4,0.3-0.6,0.5c-0.2,0.2-2.7,2.7-5.2,5.3l-0.8-2.5c2.1-2.1,4.3-4.3,4.4-4.4
	C14.7,7.6,14.8,7.5,14.9,7.2z M9.4,12.9l0.8,2.5C10,15.7,9.9,15.8,9.6,16l-0.8-2.5C9.1,13.2,9.2,13.2,9.4,12.9z M8.2,14.2L9,16.6
	c-0.2,0.2-0.4,0.4-0.6,0.6l-0.8-2.5C7.9,14.5,8,14.4,8.2,14.2z M7,15.4l0.8,2.5c-0.1,0.1-0.5,0.5-0.6,0.6l-0.8-2.5
	C6.6,15.8,6.8,15.6,7,15.4z M5.8,16.6L6.5,19l-2.4,0.8L5,17.3C5,17.3,5.7,16.7,5.8,16.6z"/>
</svg>
