<?xml version="1.0" encoding="utf-8"?>
<!-- Generator: Adobe Illustrator 17.0.0, SVG Export Plug-In . SVG Version: 6.00 Build 0)  -->
<!DOCTYPE svg PUBLIC "-//W3C//DTD SVG 1.0//EN" "http://www.w3.org/TR/2001/REC-SVG-20010904/DTD/svg10.dtd">
<svg version="1.0" id="Capa_1" xmlns="http://www.w3.org/2000/svg" xmlns:xlink="http://www.w3.org/1999/xlink" x="0px" y="0px"
	 width="24px" height="24px" viewBox="0 0 24 24" style="enable-background:new 0 0 24 24;" xml:space="preserve">
<style type="text/css">
	.st0{fill:#FDC92B;}
	.st1{fill:#F4F4F4;}
	.st2{fill:#232323;}
	.st3{fill:#61B888;}
	.st4{fill:#F78F1E;}
	.st5{fill:#707070;}
	.st6{fill:#E84747;}
	.st7{fill:#5D97D0;}
	.st8{fill:#FFFFFF;stroke:#1D1D1B;stroke-width:0.9921;stroke-miterlimit:10;}
	.st9{fill:#1D1D1B;}
</style>
<path class="st2" d="M15.4,14.7c2.3-2.6,2.2-6.6-0.3-9.1c-1.3-1.3-2.9-2-4.7-2c-1.8,0-3.5,0.7-4.7,2C3,8.2,3,12.5,5.6,15.1
	c1.3,1.3,2.9,2,4.7,2c1.6,0,3.1-0.6,4.4-1.6l4.9,4.9l0.7-0.7L15.4,14.7z M6.3,14.4c-2.2-2.2-2.2-5.8,0-8c1.1-1.1,2.5-1.7,4-1.7
	c1.5,0,2.9,0.6,4,1.7c1.1,1.1,1.7,2.5,1.7,4c0,1.5-0.6,2.9-1.7,4c-1.1,1.1-2.5,1.7-4,1.7C8.8,16,7.4,15.4,6.3,14.4z"/>
</svg>
