<?xml version="1.0" encoding="utf-8"?>
<!-- Generator: Adobe Illustrator 17.0.0, SVG Export Plug-In . SVG Version: 6.00 Build 0)  -->
<!DOCTYPE svg PUBLIC "-//W3C//DTD SVG 1.0//EN" "http://www.w3.org/TR/2001/REC-SVG-20010904/DTD/svg10.dtd">
<svg version="1.0" id="Capa_1" xmlns="http://www.w3.org/2000/svg" xmlns:xlink="http://www.w3.org/1999/xlink" x="0px" y="0px"
	 width="24px" height="24px" viewBox="0 0 24 24" style="enable-background:new 0 0 24 24;" xml:space="preserve">
<style type="text/css">
	.st0{fill:#FDC92B;}
	.st1{fill:#F4F4F4;}
	.st2{fill:#232323;}
	.st3{fill:#61B888;}
	.st4{fill:#F78F1E;}
	.st5{fill:#707070;}
	.st6{fill:#E84747;}
	.st7{fill:#5D97D0;}
	.st8{fill:#FFFFFF;stroke:#1D1D1B;stroke-width:0.9921;stroke-miterlimit:10;}
	.st9{fill:#1D1D1B;}
</style>
<g>
	<path class="st0" d="M12,21.8L12,21.8c-5.5,0-9.8-4.5-9.8-9.9c0-5.3,4.4-9.7,9.8-9.7c2.7,0,5.1,1.1,7,2.9c1.8,1.9,2.8,4.3,2.8,6.9
		C21.7,17.4,17.3,21.8,12,21.8z M12.1,3.1c-4.9,0-8.9,3.9-8.9,8.8c0,4.9,3.9,8.9,8.8,8.9l0.1,0.5v-0.5c4.8,0,8.8-3.9,8.9-8.8
		c0-2.4-0.9-4.6-2.5-6.3C16.7,4.1,14.4,3.2,12.1,3.1z"/>
	<g id="warning_4_">
		<path class="st0" d="M11.3,15.1c0-0.4,0.3-0.7,0.7-0.7c0.4,0,0.7,0.3,0.6,0.7c0,0.4-0.3,0.7-0.7,0.7
			C11.6,15.8,11.3,15.5,11.3,15.1z M11.6,13.5l-0.1-5.3l1.1,0l-0.2,5.3L11.6,13.5z"/>
	</g>
</g>
</svg>
