<?xml version="1.0" encoding="utf-8"?>
<!-- Generator: Adobe Illustrator 17.0.0, SVG Export Plug-In . SVG Version: 6.00 Build 0)  -->
<!DOCTYPE svg PUBLIC "-//W3C//DTD SVG 1.0//EN" "http://www.w3.org/TR/2001/REC-SVG-20010904/DTD/svg10.dtd">
<svg version="1.0" id="Capa_1" xmlns="http://www.w3.org/2000/svg" xmlns:xlink="http://www.w3.org/1999/xlink" x="0px" y="0px"
	 width="24px" height="24px" viewBox="0 0 24 24" style="enable-background:new 0 0 24 24;" xml:space="preserve">
<style type="text/css">
	.st0{fill:#FDC92B;}
	.st1{fill:#F4F4F4;}
	.st2{fill:#232323;}
	.st3{fill:#61B888;}
	.st4{fill:#F78F1E;}
	.st5{fill:#707070;}
	.st6{fill:#E84747;}
	.st7{fill:#5D97D0;}
	.st8{fill:#FFFFFF;stroke:#1D1D1B;stroke-width:0.9921;stroke-miterlimit:10;}
	.st9{fill:#1D1D1B;}
</style>
<g id="surface1_11_">
	<path class="st1" d="M15.9,2.6c-0.4,0-0.9,0.1-1.3,0.3L12.3,4H5.7L1.9,3.1c-0.1,0-0.1,0-0.2,0c-0.2,0-0.4,0.2-0.4,0.4
		c0,0.2,0.1,0.4,0.3,0.4l3.8,0.9l0.1,0h5L7,6.7c0,0,0,0,0,0c-0.6,0.2-0.7,1-0.3,1.5l0,0c0,0,0,0,0,0c1.3,1.4,3.3,1.8,5,1.2h0l2.5-1
		l5.1,5.2c0.4,0.4,0.4,1,0,1.4c-0.4,0.4-1,0.4-1.4,0c-0.2-0.1-0.4-0.1-0.6,0c-0.2,0.2-0.2,0.4,0,0.6c0.4,0.4,0.4,1,0,1.4
		c-0.4,0.4-1,0.4-1.4,0l-0.3-0.3c-0.2-0.1-0.4-0.1-0.6,0c-0.2,0.2-0.2,0.4,0,0.6c0.4,0.4,0.4,1,0,1.4s-1,0.4-1.4,0l-0.3-0.3
		c-0.2-0.2-0.4-0.2-0.6,0c-0.2,0.2-0.2,0.4,0,0.6c0.4,0.4,0.4,1,0,1.4c-0.4,0.4-1,0.4-1.4,0l-0.5-0.5l0.3-0.3c0.6-0.6,0.6-1.6,0-2.3
		c-0.3-0.3-0.7-0.5-1.1-0.5c0,0,0,0,0,0c0-0.4-0.1-0.8-0.5-1.2c-0.3-0.3-0.7-0.5-1.1-0.5c0,0,0,0-0.1,0c0-0.4-0.1-0.9-0.5-1.2
		c-0.3-0.3-0.7-0.5-1.1-0.5c0,0,0,0-0.1,0c0-0.4-0.1-0.9-0.5-1.2c-0.3-0.3-0.7-0.5-1.1-0.5c-0.4,0-0.8,0.2-1.1,0.5l-0.4,0.4
		l-1.7-0.3c0,0-0.1,0-0.1,0c-0.2,0-0.4,0.2-0.5,0.4c0,0.2,0.2,0.4,0.4,0.5l1.4,0.3C3,14,3.2,14.6,3.6,15c0.3,0.3,0.8,0.5,1.2,0.5
		c0,0.4,0.1,0.9,0.5,1.2c0.3,0.3,0.8,0.5,1.2,0.5c0,0.4,0.1,0.9,0.5,1.2c0.3,0.3,0.7,0.5,1.2,0.5c0,0.4,0.1,0.8,0.5,1.2l0,0
		c0.4,0.4,1.1,0.5,1.6,0.4l0.6,0.7c0.7,0.7,1.9,0.7,2.6,0c0.3-0.3,0.5-0.8,0.5-1.3c0.6,0.2,1.3,0,1.8-0.4c0.3-0.3,0.5-0.8,0.5-1.3
		c0.6,0.2,1.3,0,1.8-0.4c0.4-0.4,0.6-1,0.5-1.5c0.5,0.1,1.1-0.1,1.5-0.5c0.5-0.5,0.6-1.1,0.5-1.7l0.3-0.3l1.6-0.2
		c0.2,0,0.4-0.3,0.4-0.5c0-0.2-0.3-0.4-0.5-0.4l-1.7,0.3l-0.1,0L20.1,13c0,0-0.1-0.1-0.1-0.1l-5.2-5.2c0,0,0,0-0.1-0.1c0,0,0,0,0,0
		c-0.1-0.2-0.3-0.2-0.5-0.2l-2.8,1.1C9.9,9.1,8.3,8.7,7.3,7.6l0,0c-0.1-0.1-0.1-0.1,0-0.1h0l0,0l5.2-2.6c0.1,0,0.2-0.1,0.2-0.1
		L15,3.7h0c0.8-0.4,1.7-0.3,2.4,0.2L17.6,4l0,0.1l0.1,0c0.8,0.5,1.7,0.7,2.6,0.4v0l0,0l2-0.4c0.2-0.1,0.4-0.3,0.3-0.5
		c-0.1-0.2-0.3-0.4-0.5-0.3l-2,0.4l0,0h0c-0.6,0.2-1.3,0.1-1.9-0.3l-0.2-0.2l0,0l-0.1,0c-0.5-0.3-1-0.5-1.6-0.6
		C16.2,2.6,16.1,2.6,15.9,2.6z M5.1,12.6c0.2,0,0.4,0.1,0.5,0.2c0.3,0.3,0.3,0.7,0,1.1l-0.3,0.3l0,0l-0.1,0.1
		c-0.3,0.3-0.7,0.3-1.1,0c-0.3-0.3-0.3-0.6-0.1-0.9c0.1-0.1,0.1-0.1,0.2-0.2l0.3-0.3l0.1-0.1C4.7,12.7,4.9,12.6,5.1,12.6z M6.8,14.3
		c0.2,0,0.4,0.1,0.5,0.2c0.3,0.3,0.3,0.7,0,1L6.9,16c-0.3,0.3-0.7,0.3-1.1,0c-0.3-0.3-0.3-0.7,0-1l0.4-0.4
		C6.4,14.4,6.6,14.3,6.8,14.3z M8.4,16C8.6,16,8.8,16,9,16.2c0.3,0.3,0.3,0.6,0.1,0.9c-0.1,0-0.1,0.1-0.2,0.1l-0.4,0.4v0h0
		c0,0.1-0.1,0.1-0.1,0.2c-0.3,0.2-0.6,0.1-0.9-0.1c-0.3-0.3-0.3-0.7,0-1l0.3-0.3l0.1-0.1l0,0C8.1,16,8.3,16,8.4,16z M10,17.6
		c0.2,0,0.4,0.1,0.5,0.2c0.3,0.3,0.3,0.7,0,1.1l-0.4,0.4c0,0-0.1,0.1-0.1,0.1c0,0,0,0,0,0c-0.3,0.2-0.7,0.2-0.9-0.1
		c-0.2-0.2-0.2-0.6-0.1-0.9c0.1,0,0.1-0.1,0.2-0.1l0.4-0.4c0.1-0.1,0.1-0.1,0.1-0.2C9.8,17.6,9.9,17.6,10,17.6z"/>
</g>
</svg>
