<?xml version="1.0" encoding="utf-8"?>
<!-- Generator: Adobe Illustrator 17.0.0, SVG Export Plug-In . SVG Version: 6.00 Build 0)  -->
<!DOCTYPE svg PUBLIC "-//W3C//DTD SVG 1.0//EN" "http://www.w3.org/TR/2001/REC-SVG-20010904/DTD/svg10.dtd" [
	<!ENTITY ns_extend "http://ns.adobe.com/Extensibility/1.0/">
	<!ENTITY ns_ai "http://ns.adobe.com/AdobeIllustrator/10.0/">
	<!ENTITY ns_graphs "http://ns.adobe.com/Graphs/1.0/">
	<!ENTITY ns_vars "http://ns.adobe.com/Variables/1.0/">
	<!ENTITY ns_imrep "http://ns.adobe.com/ImageReplacement/1.0/">
	<!ENTITY ns_sfw "http://ns.adobe.com/SaveForWeb/1.0/">
	<!ENTITY ns_custom "http://ns.adobe.com/GenericCustomNamespace/1.0/">
	<!ENTITY ns_adobe_xpath "http://ns.adobe.com/XPath/1.0/">
]>
<svg version="1.0" id="Capa_1" xmlns:x="&ns_extend;" xmlns:i="&ns_ai;" xmlns:graph="&ns_graphs;"
	 xmlns="http://www.w3.org/2000/svg" xmlns:xlink="http://www.w3.org/1999/xlink" x="0px" y="0px" width="24px" height="24px"
	 viewBox="0 0 24 24" style="enable-background:new 0 0 24 24;" xml:space="preserve">
<style type="text/css">
	.st0{fill:#FFFFFF;stroke:#1D1D1B;stroke-width:0.9921;stroke-miterlimit:10;}
	.st1{fill:#1D1D1B;}
	.st2{fill:#FF7A00;}
	.st3{fill:#232323;}
	.st4{fill:#F4F4F4;}
</style>
<metadata>
	<sfw  xmlns="&ns_sfw;">
		<slices></slices>
		<sliceSourceBounds  width="16383" height="483.2" x="-8043" y="-321.5" bottomLeftOrigin="true"></sliceSourceBounds>
	</sfw>
</metadata>
<g>
	<path class="st2" d="M13.3,17.8c-0.2,0-0.4,0-0.6,0l-0.7,0l-0.7,0c-2.8,0-4.5,0-5.5-1C5,16,4.7,14.7,4.7,12c0-2.7,0.3-4,1.1-4.8
		c1-1,2.7-1,5.5-1l0.7,0l0.7,0c2.8,0,4.5,0,5.5,1C19,8,19.3,9.3,19.3,12c0,2.7-0.3,4-1.1,4.8C17.3,17.8,15.8,17.8,13.3,17.8z
		 M12,16.8l0.7,0c2.5,0,4.1,0,4.8-0.7c0.6-0.6,0.8-1.8,0.8-4.1c0-2.3-0.2-3.5-0.8-4.1c-0.7-0.7-2.3-0.7-4.8-0.7l-0.7,0l-0.7,0
		c-2.6,0-4.1,0-4.8,0.7C5.9,8.5,5.6,9.7,5.6,12c0,2.3,0.2,3.5,0.8,4.1c0.7,0.7,2.3,0.7,4.8,0.7L12,16.8z M10.8,14.7
		c-0.1,0-0.2,0-0.3-0.1c-0.2-0.1-0.4-0.4-0.4-0.7v-3.8c0-0.3,0.1-0.6,0.4-0.7c0.2-0.1,0.5-0.1,0.8,0.1l3.1,1.9c0,0,0,0,0,0
		c0.2,0.1,0.3,0.3,0.3,0.6c0,0.3-0.2,0.5-0.3,0.6l-3.2,2C11.2,14.6,11,14.7,10.8,14.7z M11.1,10.5l0,3l2.4-1.5L11.1,10.5z"/>
</g>
</svg>
