<?xml version="1.0" encoding="utf-8"?>
<!-- Generator: Adobe Illustrator 17.0.0, SVG Export Plug-In . SVG Version: 6.00 Build 0)  -->
<!DOCTYPE svg PUBLIC "-//W3C//DTD SVG 1.0//EN" "http://www.w3.org/TR/2001/REC-SVG-20010904/DTD/svg10.dtd" [
	<!ENTITY ns_extend "http://ns.adobe.com/Extensibility/1.0/">
	<!ENTITY ns_ai "http://ns.adobe.com/AdobeIllustrator/10.0/">
	<!ENTITY ns_graphs "http://ns.adobe.com/Graphs/1.0/">
	<!ENTITY ns_vars "http://ns.adobe.com/Variables/1.0/">
	<!ENTITY ns_imrep "http://ns.adobe.com/ImageReplacement/1.0/">
	<!ENTITY ns_sfw "http://ns.adobe.com/SaveForWeb/1.0/">
	<!ENTITY ns_custom "http://ns.adobe.com/GenericCustomNamespace/1.0/">
	<!ENTITY ns_adobe_xpath "http://ns.adobe.com/XPath/1.0/">
]>
<svg version="1.0" id="Capa_1" xmlns:x="&ns_extend;" xmlns:i="&ns_ai;" xmlns:graph="&ns_graphs;"
	 xmlns="http://www.w3.org/2000/svg" xmlns:xlink="http://www.w3.org/1999/xlink" x="0px" y="0px" width="24px" height="24px"
	 viewBox="0 0 24 24" style="enable-background:new 0 0 24 24;" xml:space="preserve">
<style type="text/css">
	.st0{fill:#FFFFFF;stroke:#1D1D1B;stroke-width:0.9921;stroke-miterlimit:10;}
	.st1{fill:#1D1D1B;}
	.st2{fill:#FF7A00;}
	.st3{fill:#232323;}
	.st4{fill:#F4F4F4;}
</style>
<metadata>
	<sfw  xmlns="&ns_sfw;">
		<slices></slices>
		<sliceSourceBounds  width="16383" height="483.2" x="-8043" y="-321.5" bottomLeftOrigin="true"></sliceSourceBounds>
	</sfw>
</metadata>
<g>
	<path class="st3" d="M9.3,18.5c-1.7,0-3.4-0.5-4.9-1.4c-0.2-0.1-0.3-0.4-0.2-0.6c0.1-0.2,0.3-0.3,0.5-0.3c1,0.1,2.2-0.1,3.1-0.5
		c-0.9-0.4-1.7-1.2-2-2.2c-0.1-0.2,0-0.4,0.1-0.5c0,0,0,0,0,0c-0.7-0.7-1.2-1.6-1.2-2.7c0-0.2,0.1-0.4,0.2-0.4
		c0.1,0,0.1-0.1,0.2-0.1C4.9,9.2,4.8,8.7,4.8,8.1c0-0.6,0.2-1.2,0.5-1.8c0.1-0.1,0.2-0.2,0.4-0.2c0.2,0,0.3,0.1,0.4,0.2
		c1.3,1.6,3.2,2.7,5.3,2.9c0,0,0-0.1,0-0.1c0-1.9,1.6-3.5,3.5-3.5c0.9,0,1.7,0.3,2.4,0.9c0.5-0.1,1-0.3,1.5-0.6
		c0.2-0.1,0.4-0.1,0.6,0c0.2,0.1,0.2,0.3,0.2,0.5c-0.1,0.2-0.1,0.4-0.2,0.6c0.2-0.1,0.4,0,0.6,0.1c0.1,0.2,0.2,0.4,0,0.6
		c-0.4,0.6-0.9,1.1-1.4,1.5c0,0.1,0,0.1,0,0.2C18.4,13.9,15,18.5,9.3,18.5z M6.6,17c0.8,0.3,1.7,0.4,2.6,0.4c5.1,0,8.1-4.1,8.1-8.1
		c0-0.1,0-0.2,0-0.4c0-0.2,0.1-0.3,0.2-0.4c0.1-0.1,0.2-0.1,0.3-0.2c-0.1,0-0.1,0-0.2,0c-0.2,0-0.5-0.1-0.5-0.3
		c-0.1-0.2,0-0.5,0.2-0.6c0.1,0,0.1-0.1,0.2-0.1c-0.1,0-0.3,0.1-0.4,0.1c-0.2,0-0.3,0-0.5-0.1c-0.5-0.5-1.1-0.8-1.8-0.8
		c-1.4,0-2.5,1.1-2.5,2.5c0,0.2,0,0.4,0.1,0.6c0,0.2,0,0.3-0.1,0.4c-0.1,0.1-0.3,0.2-0.4,0.2c-2.3-0.1-4.5-1.1-6-2.7
		c0,0.2-0.1,0.4-0.1,0.6c0,0.8,0.4,1.6,1.1,2.1c0.2,0.1,0.3,0.4,0.2,0.6C7,11,6.8,11.1,6.6,11.1c-0.3,0-0.5,0-0.7-0.1
		c0.3,0.9,1,1.6,1.9,1.7c0.2,0,0.4,0.2,0.4,0.5c0,0.2-0.1,0.4-0.4,0.5c-0.2,0.1-0.4,0.1-0.7,0.1c0.5,0.6,1.2,1,2,1.1
		c0.2,0,0.4,0.1,0.5,0.3c0.1,0.2,0,0.4-0.2,0.5C8.6,16.4,7.6,16.8,6.6,17z"/>
</g>
</svg>
