<?xml version="1.0" encoding="utf-8"?>
<!-- Generator: Adobe Illustrator 17.0.0, SVG Export Plug-In . SVG Version: 6.00 Build 0)  -->
<!DOCTYPE svg PUBLIC "-//W3C//DTD SVG 1.0//EN" "http://www.w3.org/TR/2001/REC-SVG-20010904/DTD/svg10.dtd" [
	<!ENTITY ns_extend "http://ns.adobe.com/Extensibility/1.0/">
	<!ENTITY ns_ai "http://ns.adobe.com/AdobeIllustrator/10.0/">
	<!ENTITY ns_graphs "http://ns.adobe.com/Graphs/1.0/">
	<!ENTITY ns_vars "http://ns.adobe.com/Variables/1.0/">
	<!ENTITY ns_imrep "http://ns.adobe.com/ImageReplacement/1.0/">
	<!ENTITY ns_sfw "http://ns.adobe.com/SaveForWeb/1.0/">
	<!ENTITY ns_custom "http://ns.adobe.com/GenericCustomNamespace/1.0/">
	<!ENTITY ns_adobe_xpath "http://ns.adobe.com/XPath/1.0/">
]>
<svg version="1.0" id="Capa_1" xmlns:x="&ns_extend;" xmlns:i="&ns_ai;" xmlns:graph="&ns_graphs;"
	 xmlns="http://www.w3.org/2000/svg" xmlns:xlink="http://www.w3.org/1999/xlink" x="0px" y="0px" width="24px" height="24px"
	 viewBox="0 0 24 24" style="enable-background:new 0 0 24 24;" xml:space="preserve">
<style type="text/css">
	.st0{fill:#FFFFFF;stroke:#1D1D1B;stroke-width:0.9921;stroke-miterlimit:10;}
	.st1{fill:#1D1D1B;}
	.st2{fill:#FF7A00;}
	.st3{fill:#232323;}
	.st4{fill:#F4F4F4;}
</style>
<metadata>
	<sfw  xmlns="&ns_sfw;">
		<slices></slices>
		<sliceSourceBounds  width="16383" height="483.2" x="-8043" y="-321.5" bottomLeftOrigin="true"></sliceSourceBounds>
	</sfw>
</metadata>
<g>
	<path class="st4" d="M11.7,13.1c-0.9,0-1.8,0-2.7,0c0-0.7,0-1.4,0-2.1c0.1,0,0.2,0,0.3,0c1.4,0,2.8,0,4.3,0c0.2,0,0.3,0.1,0.4,0.3
		c0.3,2.2-0.5,4.5-2.7,5.4c-3.3,1.5-6.9-0.6-7.4-4C3.5,9.9,5.4,7.3,8.2,6.9c1.5-0.2,2.8,0.1,4,1c0.1,0.1,0.2,0.2,0.2,0.2
		c-0.5,0.5-1,1-1.5,1.5c-0.5-0.5-1.2-0.7-2-0.7C8.2,9,7.6,9.2,7.1,9.7c-1,0.9-1.3,2.4-0.7,3.7c0.6,1.2,1.9,1.9,3.2,1.7
		C10.8,14.8,11.6,14,11.7,13.1z"/>
	<path class="st4" d="M17,12.4c-0.5,0-1,0-1.5,0c-0.2,0-0.3-0.1-0.3-0.3c0-0.2,0-0.5,0-0.8c0-0.2,0.1-0.3,0.3-0.3c0.5,0,1,0,1.5,0
		c0-0.5,0-1,0-1.5c0-0.3,0.1-0.3,0.3-0.3c0.3,0,0.5,0,0.8,0c0.2,0,0.2,0.1,0.2,0.2c0,0.5,0,1,0,1.6c0.5,0,1,0,1.5,0
		c0.2,0,0.3,0.1,0.3,0.3c0,0.2,0,0.5,0,0.7c0,0.3-0.1,0.4-0.3,0.4c-0.5,0-0.9,0-1.5,0c0,0.5,0,0.9,0,1.4c0,0.4,0,0.4-0.4,0.4
		c-0.2,0-0.4,0-0.7,0c-0.2,0-0.3-0.1-0.3-0.3C17,13.5,17,13,17,12.4z"/>
</g>
</svg>
