<?xml version="1.0" encoding="utf-8"?>
<!-- Generator: Adobe Illustrator 17.0.0, SVG Export Plug-In . SVG Version: 6.00 Build 0)  -->
<!DOCTYPE svg PUBLIC "-//W3C//DTD SVG 1.0//EN" "http://www.w3.org/TR/2001/REC-SVG-20010904/DTD/svg10.dtd" [
	<!ENTITY ns_extend "http://ns.adobe.com/Extensibility/1.0/">
	<!ENTITY ns_ai "http://ns.adobe.com/AdobeIllustrator/10.0/">
	<!ENTITY ns_graphs "http://ns.adobe.com/Graphs/1.0/">
	<!ENTITY ns_vars "http://ns.adobe.com/Variables/1.0/">
	<!ENTITY ns_imrep "http://ns.adobe.com/ImageReplacement/1.0/">
	<!ENTITY ns_sfw "http://ns.adobe.com/SaveForWeb/1.0/">
	<!ENTITY ns_custom "http://ns.adobe.com/GenericCustomNamespace/1.0/">
	<!ENTITY ns_adobe_xpath "http://ns.adobe.com/XPath/1.0/">
]>
<svg version="1.0" id="Capa_1" xmlns:x="&ns_extend;" xmlns:i="&ns_ai;" xmlns:graph="&ns_graphs;"
	 xmlns="http://www.w3.org/2000/svg" xmlns:xlink="http://www.w3.org/1999/xlink" x="0px" y="0px" width="24px" height="24px"
	 viewBox="0 0 24 24" style="enable-background:new 0 0 24 24;" xml:space="preserve">
<style type="text/css">
	.st0{fill:#FFFFFF;stroke:#1D1D1B;stroke-width:0.9921;stroke-miterlimit:10;}
	.st1{fill:#1D1D1B;}
	.st2{fill:#FF7A00;}
	.st3{fill:#232323;}
	.st4{fill:#F4F4F4;}
</style>
<metadata>
	<sfw  xmlns="&ns_sfw;">
		<slices></slices>
		<sliceSourceBounds  width="16383" height="483.2" x="-8043" y="-321.5" bottomLeftOrigin="true"></sliceSourceBounds>
	</sfw>
</metadata>
<g>
	<g>
		<path class="st2" d="M18.6,14.7c-0.3,0-0.5-0.2-0.5-0.5V9.1c0-0.3,0.2-0.5,0.5-0.5c0.3,0,0.5,0.2,0.5,0.5v5.1
			C19.1,14.5,18.9,14.7,18.6,14.7z"/>
	</g>
	<g>
		<path class="st2" d="M21,12.2h-4.9c-0.3,0-0.5-0.2-0.5-0.5c0-0.3,0.2-0.5,0.5-0.5H21c0.3,0,0.5,0.2,0.5,0.5
			C21.5,12,21.3,12.2,21,12.2z"/>
	</g>
	<g>
		<path class="st2" d="M7.9,17.5c-3,0-5.5-2.5-5.5-5.5s2.5-5.5,5.5-5.5c1.4,0,2.7,0.5,3.7,1.4c0.2,0.2,0.2,0.5,0,0.7
			c-0.2,0.2-0.5,0.2-0.7,0c-0.8-0.8-1.9-1.2-3-1.2c-2.5,0-4.5,2-4.5,4.5s2,4.5,4.5,4.5c2.3,0,4.2-1.7,4.4-4H7.9
			c-0.3,0-0.5-0.2-0.5-0.5s0.2-0.5,0.5-0.5h5c0.3,0,0.5,0.2,0.5,0.5C13.4,15,10.9,17.5,7.9,17.5z"/>
	</g>
</g>
</svg>
