<?xml version="1.0" encoding="utf-8"?>
<!-- Generator: Adobe Illustrator 17.0.0, SVG Export Plug-In . SVG Version: 6.00 Build 0)  -->
<!DOCTYPE svg PUBLIC "-//W3C//DTD SVG 1.0//EN" "http://www.w3.org/TR/2001/REC-SVG-20010904/DTD/svg10.dtd" [
	<!ENTITY ns_extend "http://ns.adobe.com/Extensibility/1.0/">
	<!ENTITY ns_ai "http://ns.adobe.com/AdobeIllustrator/10.0/">
	<!ENTITY ns_graphs "http://ns.adobe.com/Graphs/1.0/">
	<!ENTITY ns_vars "http://ns.adobe.com/Variables/1.0/">
	<!ENTITY ns_imrep "http://ns.adobe.com/ImageReplacement/1.0/">
	<!ENTITY ns_sfw "http://ns.adobe.com/SaveForWeb/1.0/">
	<!ENTITY ns_custom "http://ns.adobe.com/GenericCustomNamespace/1.0/">
	<!ENTITY ns_adobe_xpath "http://ns.adobe.com/XPath/1.0/">
]>
<svg version="1.0" id="Capa_1" xmlns:x="&ns_extend;" xmlns:i="&ns_ai;" xmlns:graph="&ns_graphs;"
	 xmlns="http://www.w3.org/2000/svg" xmlns:xlink="http://www.w3.org/1999/xlink" x="0px" y="0px" width="24px" height="24px"
	 viewBox="0 0 24 24" style="enable-background:new 0 0 24 24;" xml:space="preserve">
<style type="text/css">
	.st0{fill:#FFFFFF;stroke:#1D1D1B;stroke-width:0.9921;stroke-miterlimit:10;}
	.st1{fill:#1D1D1B;}
	.st2{fill:#FF7A00;}
	.st3{fill:#232323;}
	.st4{fill:#F4F4F4;}
</style>
<metadata>
	<sfw  xmlns="&ns_sfw;">
		<slices></slices>
		<sliceSourceBounds  width="16383" height="483.2" x="-8043" y="-321.5" bottomLeftOrigin="true"></sliceSourceBounds>
	</sfw>
</metadata>
<path class="st3" d="M18.9,7.7c-0.5,0.2-1.1,0.4-1.6,0.4c0.6-0.4,1-0.9,1.3-1.6c-0.5,0.3-1.2,0.6-1.8,0.7c-0.5-0.6-1.3-0.9-2.1-0.9
	c-1.6,0-2.8,1.3-2.8,2.8c0,0.2,0,0.4,0.1,0.6C9.5,9.7,7.4,8.6,6,6.9C5.8,7.3,5.7,7.8,5.7,8.3c0,1,0.5,1.9,1.3,2.4
	c-0.5,0-0.9-0.1-1.3-0.4c0,0,0,0,0,0c0,1.4,1,2.5,2.3,2.8c-0.2,0.1-0.5,0.1-0.7,0.1c-0.2,0-0.4,0-0.5-0.1c0.4,1.1,1.4,2,2.7,2
	c-1,0.8-2.2,1.2-3.5,1.2c-0.2,0-0.5,0-0.7,0c1.3,0.8,2.7,1.3,4.4,1.3c5.2,0,8.1-4.3,8.1-8.1c0-0.1,0-0.2,0-0.4
	C18.1,8.8,18.5,8.3,18.9,7.7z"/>
</svg>
