<?xml version="1.0" encoding="utf-8"?>
<!-- Generator: Adobe Illustrator 17.0.0, SVG Export Plug-In . SVG Version: 6.00 Build 0)  -->
<!DOCTYPE svg PUBLIC "-//W3C//DTD SVG 1.0//EN" "http://www.w3.org/TR/2001/REC-SVG-20010904/DTD/svg10.dtd" [
	<!ENTITY ns_extend "http://ns.adobe.com/Extensibility/1.0/">
	<!ENTITY ns_ai "http://ns.adobe.com/AdobeIllustrator/10.0/">
	<!ENTITY ns_graphs "http://ns.adobe.com/Graphs/1.0/">
	<!ENTITY ns_vars "http://ns.adobe.com/Variables/1.0/">
	<!ENTITY ns_imrep "http://ns.adobe.com/ImageReplacement/1.0/">
	<!ENTITY ns_sfw "http://ns.adobe.com/SaveForWeb/1.0/">
	<!ENTITY ns_custom "http://ns.adobe.com/GenericCustomNamespace/1.0/">
	<!ENTITY ns_adobe_xpath "http://ns.adobe.com/XPath/1.0/">
]>
<svg version="1.0" id="Capa_1" xmlns:x="&ns_extend;" xmlns:i="&ns_ai;" xmlns:graph="&ns_graphs;"
	 xmlns="http://www.w3.org/2000/svg" xmlns:xlink="http://www.w3.org/1999/xlink" x="0px" y="0px" width="24px" height="24px"
	 viewBox="0 0 24 24" style="enable-background:new 0 0 24 24;" xml:space="preserve">
<style type="text/css">
	.st0{fill:#FFFFFF;stroke:#1D1D1B;stroke-width:0.9921;stroke-miterlimit:10;}
	.st1{fill:#1D1D1B;}
	.st2{fill:#FF7A00;}
	.st3{fill:#232323;}
	.st4{fill:#F4F4F4;}
</style>
<metadata>
	<sfw  xmlns="&ns_sfw;">
		<slices></slices>
		<sliceSourceBounds  width="16383" height="483.2" x="-8043" y="-321.5" bottomLeftOrigin="true"></sliceSourceBounds>
	</sfw>
</metadata>
<g>
	<path class="st2" d="M12,6.3c1.8,0,2.1,0,2.8,0c0.7,0,1,0.1,1.3,0.2c0.3,0.1,0.6,0.3,0.8,0.5c0.2,0.2,0.4,0.5,0.5,0.8
		c0.1,0.2,0.2,0.6,0.2,1.3c0,0.7,0,0.9,0,2.8c0,1.8,0,2.1,0,2.8c0,0.7-0.1,1-0.2,1.3c-0.1,0.3-0.3,0.6-0.5,0.8
		c-0.2,0.2-0.5,0.4-0.8,0.5c-0.2,0.1-0.6,0.2-1.3,0.2c-0.7,0-0.9,0-2.8,0c-1.8,0-2.1,0-2.8,0c-0.7,0-1-0.1-1.3-0.2
		c-0.3-0.1-0.6-0.3-0.8-0.5c-0.2-0.2-0.4-0.5-0.5-0.8c-0.1-0.2-0.2-0.6-0.2-1.3c0-0.7,0-0.9,0-2.8c0-1.8,0-2.1,0-2.8
		c0-0.7,0.1-1,0.2-1.3c0.1-0.3,0.3-0.6,0.5-0.8c0.2-0.2,0.5-0.4,0.8-0.5c0.2-0.1,0.6-0.2,1.3-0.2C9.9,6.4,10.2,6.3,12,6.3 M12,5.1
		c-1.9,0-2.1,0-2.8,0c-0.7,0-1.2,0.2-1.7,0.3C7,5.6,6.6,5.9,6.3,6.3C5.9,6.6,5.6,7,5.5,7.5C5.3,7.9,5.2,8.4,5.1,9.2c0,0.7,0,1,0,2.8
		s0,2.1,0,2.8c0,0.7,0.2,1.2,0.3,1.7c0.2,0.5,0.4,0.8,0.8,1.2c0.4,0.4,0.8,0.6,1.2,0.8c0.4,0.2,0.9,0.3,1.7,0.3c0.7,0,1,0,2.8,0
		c1.9,0,2.1,0,2.8,0c0.7,0,1.2-0.2,1.7-0.3c0.5-0.2,0.8-0.4,1.2-0.8s0.6-0.8,0.8-1.2c0.2-0.4,0.3-0.9,0.3-1.7c0-0.7,0-1,0-2.8
		s0-2.1,0-2.8c0-0.7-0.2-1.2-0.3-1.7c-0.2-0.5-0.4-0.8-0.8-1.2c-0.4-0.4-0.8-0.6-1.2-0.8c-0.4-0.2-0.9-0.3-1.7-0.3
		C14.1,5.1,13.9,5.1,12,5.1"/>
	<path class="st2" d="M12,8.5c-2,0-3.5,1.6-3.5,3.5c0,2,1.6,3.5,3.5,3.5c2,0,3.5-1.6,3.5-3.5C15.5,10,14,8.5,12,8.5 M12,14.3
		c-1.3,0-2.3-1-2.3-2.3c0-1.3,1-2.3,2.3-2.3c1.3,0,2.3,1,2.3,2.3C14.3,13.3,13.3,14.3,12,14.3"/>
	<path class="st2" d="M16.5,8.3c0,0.5-0.4,0.8-0.8,0.8c-0.5,0-0.8-0.4-0.8-0.8c0-0.5,0.4-0.8,0.8-0.8C16.1,7.5,16.5,7.9,16.5,8.3"/>
</g>
</svg>
